<svg id="wave" style="transform:rotate(180deg); transition: 0.3s" viewBox="0 0 1440 180" version="1.1" xmlns="http://www.w3.org/2000/svg"><defs><linearGradient id="sw-gradient-0" x1="0" x2="0" y1="1" y2="0"><stop stop-color="#276E48" offset="0%"></stop><stop stop-color="#276E48" offset="100%"></stop></linearGradient></defs><path style="transform:translate(0, 0px); opacity:1" fill="url(#sw-gradient-0)" d="M0,54L15,66C30,78,60,102,90,93C120,84,150,42,180,21C210,0,240,0,270,9C300,18,330,36,360,42C390,48,420,42,450,54C480,66,510,96,540,90C570,84,600,42,630,27C660,12,690,24,720,36C750,48,780,60,810,60C840,60,870,48,900,48C930,48,960,60,990,75C1020,90,1050,108,1080,108C1110,108,1140,90,1170,72C1200,54,1230,36,1260,36C1290,36,1320,54,1350,57C1380,60,1410,48,1440,57C1470,66,1500,96,1530,114C1560,132,1590,138,1620,129C1650,120,1680,96,1710,87C1740,78,1770,84,1800,72C1830,60,1860,30,1890,27C1920,24,1950,48,1980,54C2010,60,2040,48,2070,45C2100,42,2130,48,2145,51L2160,54L2160,180L2145,180C2130,180,2100,180,2070,180C2040,180,2010,180,1980,180C1950,180,1920,180,1890,180C1860,180,1830,180,1800,180C1770,180,1740,180,1710,180C1680,180,1650,180,1620,180C1590,180,1560,180,1530,180C1500,180,1470,180,1440,180C1410,180,1380,180,1350,180C1320,180,1290,180,1260,180C1230,180,1200,180,1170,180C1140,180,1110,180,1080,180C1050,180,1020,180,990,180C960,180,930,180,900,180C870,180,840,180,810,180C780,180,750,180,720,180C690,180,660,180,630,180C600,180,570,180,540,180C510,180,480,180,450,180C420,180,390,180,360,180C330,180,300,180,270,180C240,180,210,180,180,180C150,180,120,180,90,180C60,180,30,180,15,180L0,180Z"></path></svg>