<svg id="wave" style="transform:rotate(0deg); transition: 0.3s" viewBox="0 0 1440 83" version="1.1" xmlns="http://www.w3.org/2000/svg" height="30px">
  <defs>
    <linearGradient id="sw-gradient-0" x1="0" x2="0" y1="1" y2="0">
      <stop stop-color="#276E48" offset="0%"></stop>
    </linearGradient>
  </defs>
  <path style="transform:translate(0, 0px); opacity:1" fill="url(#sw-gradient-0)" d="M0,80L21.8,66.7C43.6,53,87,27,131,18.3C174.5,10,218,20,262,30C305.5,40,349,50,393,51.7C436.4,53,480,47,524,45C567.3,43,611,47,655,53.3C698.2,60,742,70,785,68.3C829.1,67,873,53,916,48.3C960,43,1004,47,1047,53.3C1090.9,60,1135,70,1178,75C1221.8,80,1265,80,1309,78.3C1352.7,77,1396,73,1440,60C1483.6,47,1527,23,1571,25C1614.5,27,1658,53,1702,63.3C1745.5,73,1789,67,1833,65C1876.4,63,1920,67,1964,58.3C2007.3,50,2051,30,2095,20C2138.2,10,2182,10,2225,20C2269.1,30,2313,50,2356,48.3C2400,47,2444,23,2487,15C2530.9,7,2575,13,2618,16.7C2661.8,20,2705,20,2749,18.3C2792.7,17,2836,13,2880,15C2923.6,17,2967,23,3011,23.3C3054.5,23,3098,17,3120,13.3L3141.8,10L3141.8,100L3120,100C3098.2,100,3055,100,3011,100C2967.3,100,2924,100,2880,100C2836.4,100,2793,100,2749,100C2705.5,100,2662,100,2618,100C2574.5,100,2531,100,2487,100C2443.6,100,2400,100,2356,100C2312.7,100,2269,100,2225,100C2181.8,100,2138,100,2095,100C2050.9,100,2007,100,1964,100C1920,100,1876,100,1833,100C1789.1,100,1745,100,1702,100C1658.2,100,1615,100,1571,100C1527.3,100,1484,100,1440,100C1396.4,100,1353,100,1309,100C1265.5,100,1222,100,1178,100C1134.5,100,1091,100,1047,100C1003.6,100,960,100,916,100C872.7,100,829,100,785,100C741.8,100,698,100,655,100C610.9,100,567,100,524,100C480,100,436,100,393,100C349.1,100,305,100,262,100C218.2,100,175,100,131,100C87.3,100,44,100,22,100L0,100Z"></path>
</svg>
